<!DOCTYPE svg PUBLIC "-//W3C//DTD SVG 1.1//EN" "http://www.w3.org/Graphics/SVG/1.1/DTD/svg11.dtd">
<!-- Uploaded to: SVG Repo, www.svgrepo.com, Transformed by: SVG Repo Mixer Tools -->
<svg fill="#000000" height="64px" width="64px" version="1.1" id="Layer_1" xmlns="http://www.w3.org/2000/svg" xmlns:xlink="http://www.w3.org/1999/xlink" viewBox="-51.2 -51.2 614.40 614.40" xml:space="preserve" transform="rotate(45)matrix(1, 0, 0, 1, 0, 0)" stroke="#000000" stroke-width="0.0051199900000000005">
<g id="SVGRepo_bgCarrier" stroke-width="0"/>
<g id="SVGRepo_tracerCarrier" stroke-linecap="round" stroke-linejoin="round" stroke="#CCCCCC" stroke-width="17.407966000000002"/>
<g id="SVGRepo_iconCarrier"> <g> <g> <g> <path d="M392.45,67.792c-14.269,14.269-14.269,37.489,0,51.758c7.135,7.134,16.507,10.702,25.879,10.702 c9.372,0,18.744-3.568,25.879-10.702c14.269-14.269,14.269-37.489,0-51.758C429.937,53.524,406.72,53.524,392.45,67.792z M429.784,105.127c-6.316,6.316-16.594,6.316-22.91,0c-6.316-6.316-6.316-16.594,0-22.91c3.158-3.159,7.307-4.738,11.454-4.738 c4.148,0,8.297,1.58,11.456,4.738C436.101,88.533,436.101,98.811,429.784,105.127z"/> <path d="M499.211,12.789C489.109,2.685,475.235-1.751,461.142,0.63L321.091,24.245C299.34,27.912,279.599,38.095,264,53.692 L2.988,314.706c-3.983,3.984-3.983,10.442,0,14.424L182.87,509.012c1.992,1.991,4.601,2.987,7.212,2.987s5.22-0.995,7.212-2.987 l261.013-261.011c15.597-15.598,25.78-35.341,29.448-57.091L511.37,50.858C513.747,36.768,509.314,22.892,499.211,12.789z M491.257,47.465l-23.616,140.052c-2.96,17.548-11.175,33.475-23.759,46.059L190.081,487.376L24.623,321.918L278.424,68.117 c12.584-12.584,28.51-20.799,46.059-23.759l140.052-23.616c7.491-1.257,14.877,1.093,20.253,6.469 C490.163,32.586,492.521,39.968,491.257,47.465z"/> </g> </g> </g> <g> <g> <path d="M246.185,347.014c-3.281-3.281-7.699-4.417-10.476-1.64l-37.487,37.487l-29.031-29.031l19.438-19.438 c3.029-3.028,1.64-7.194-0.758-9.592c-2.903-2.903-7.067-3.787-9.844-1.01l-19.438,19.438l-28.907-28.907l37.487-37.487 c2.777-2.776,1.642-7.194-1.64-10.476c-2.776-2.776-7.193-4.417-10.224-1.387l-44.934,44.934 c-2.903,2.903-4.417,7.446-1.515,10.349l83.431,83.431c2.903,2.904,7.446,1.39,10.35-1.514l44.934-44.934 C250.602,354.208,248.962,349.791,246.185,347.014z"/> </g> </g> <g> <g> <path d="M294.525,264.593c-5.552-5.552-9.087-4.797-13.758-0.126c-3.66,3.66-5.175,7.447-2.146,10.982 c5.049,6.059,12.622,15.903-0.252,28.778c-9.972,9.973-20.572,10.226-31.68-0.882l-36.731-36.731 c-11.107-11.107-10.855-21.71-1.136-31.428c13.001-13.001,23.604-5.428,28.273-1.263c3.156,2.902,7.069,1.767,11.109-2.272 c4.544-4.544,5.426-7.952-0.253-13.631c-13.38-13.381-34.205-11.487-51.498,5.805c-15.273,15.272-20.322,35.719,0.126,56.167 l36.731,36.731c20.447,20.447,40.766,15.525,56.04,0.252C306.642,299.681,308.409,278.477,294.525,264.593z"/> </g> </g> <g> <g> <path d="M358.263,191.771l-36.731-36.731c-20.447-20.448-40.642-15.651-56.545,0.252c-16.031,16.03-20.575,35.972-0.126,56.42 l36.731,36.731c20.447,20.447,40.389,15.903,56.419-0.128C373.913,232.413,378.71,212.218,358.263,191.771z M346.146,236.451 c-9.467,9.468-20.068,9.721-31.175-1.387l-36.731-36.731c-11.107-11.107-10.855-21.71-1.388-31.176 c9.339-9.34,20.194-9.845,31.302,1.263l36.731,36.731C355.991,216.256,355.485,227.111,346.146,236.451z"/> </g> </g> <g> <g> <path d="M260.659,387.498c-3.985-3.982-10.441-3.982-14.424,0l-60.684,60.684c-3.983,3.984-3.983,10.442,0,14.424 c1.992,1.991,4.601,2.987,7.212,2.987c2.61,0,5.22-0.995,7.213-2.987l60.684-60.684 C264.642,397.939,264.642,391.481,260.659,387.498z"/> </g> </g> <g> <g> <path d="M288.196,359.961c-3.985-3.982-10.441-3.982-14.424,0l-4.59,4.59c-3.983,3.984-3.983,10.442,0,14.424 c1.992,1.991,4.601,2.987,7.212,2.987c2.61,0,5.22-0.995,7.213-2.987l4.59-4.59C292.179,370.401,292.179,363.943,288.196,359.961z "/> </g> </g> </g>
</svg>